<svg width="800" height="800" viewBox="0 0 64 64" xmlns="http://www.w3.org/2000/svg"><path d="m53.16 46.58c-2.46-2-6.63-1.46-6.63-1.46a2.57 2.57.0 00-1.66-2.46 7.78 7.78.0 00-2.5-.75s-.25-3.37-3.09-3.5A9.36 9.36.0 0034 40.12s.13-1.71-.29-1.91a2.4 2.4.0 00-1.21-.05s-.87.09-.87.0.25-1.37.0-1.58a5.75 5.75.0 00-1.71-.25l-.22 4.17A8.45 8.45.0 0023.62 38a6 6 0 00-5.13 3.54 15.25 15.25.0 00-.33 1.67 7.22 7.22.0 00-3.21.5 5.16 5.16.0 00-2.54 2.62A6.77 6.77.0 0012.24 48s-2.29 1-3 2.62a4.06 4.06.0 001.59 5.33c2.29 1.25 3.16 1.42 4 1.42a28.61 28.61.0 003.29-.5 6.5 6.5.0 003.25.63c1.87-.13 3.42-1.55 5-1.5s2.83.95 4.54.95a15.75 15.75.0 004.25-.95 4.34 4.34.0 003.29 1.21 6.66 6.66.0 003-.92c.12.0 2.29 1.17 3.71.83a4.78 4.78.0 002-.91s6.17.7 7.21-1.92 1.25-5.67-1.21-7.71zm-25.5-12.71a13 13 0 00.17 3.13c.12.29.7-.05.91-.17a10.28 10.28.0 000-3c-.08-.5-.74-.08-1.08.04zm7-2.21s-.21 3.17-.17 3.38.8.5.92.29a17.53 17.53.0 000-4c-.17-.25-.41.08-.71.33zm-9.04-17.45a12.56 12.56.0 00.16-2.3A9.82 9.82.0 0127 8.66c.17-.33-.25-.29-.46-.25a5.34 5.34.0 00-1.29 2.42C24.7 12.37 24.5 14 24.7 14s.79.33.92.21zm.21 14.5c.12.0.79-.59 1-.88s.08-.87.08-1.33.79-.5.79-.5l.67 1.5 1.08.12.13 1.17a7.34 7.34.0 00-.38 1.37 2.33 2.33.0 00.8 2.21c.42.5.79 2.09 1.13 2.17s1.62-1 2.29-2.17.21-3 .33-3 0-1.33.0-1.33a4.14 4.14.0 00.88-.42c.45-.29 1.12-1 1.25-1a8.69 8.69.0 011 1.83c.08.29.25.21.62.17s2.13-5.54 2.09-6.25-2.17-2.17-2.17-2.17a33.82 33.82.0 000-4.79c-.21-2.62-1.75-8.58-4.75-8.79S28.08 9.29 27 12.79a20.68 20.68.0 00-.62 7.42 24.77 24.77.0 00-2.88 2c-.21.29-.16.66.38 2.12a34.7 34.7.0 001.95 4.38z" fill="#1d1d1b"/><path d="m31.62 40c.12.0.75.2.75.33s0 5.46.91 6.21 1.3.33 1.55.12a5.36 5.36.0 012.33-.71c1 0 .92 3.13 1.42 3.21s3.37-.25 5 1.34a3.23 3.23.0 010 4.33c-.5.21-1.63-.5-2-.38s-.79 1.05-1 1.17a3.79 3.79.0 01-2.58.5c-1.13-.29-4-1.12-3.59-3.12s1.25-2.13 1.62-2 .71.29.71.08.0-.63-.16-.71a3.29 3.29.0 00-1.71.0c-.5.21-2.09 2.17-1.59 3.42a3.72 3.72.0 001 1.58 7.27 7.27.0 01-3.5.67c-2-.13-3.91-1.17-4.87-1s-3.09 1.2-3.84 1.16-3.16-.16-3.33-2a3 3 0 012.67-3.33 3.44 3.44.0 012.21.58c0 .13-.09.42.45.25s1-.54.92-.79-2.5-1.46-1.29-3.21 3.5-1.54 4-1 1 1.12 1.5.87 1.5-1.5 1.91-3.91.51-3.66.51-3.66z" fill="#cbe7f5"/><path d="m25.62 52.16c.34-.17 2 .38 3.08-.54a4.76 4.76.0 001.42-2.08c.12.5.21.58.12 1a10.12 10.12.0 01-.62 1.41s1.66 2.75 1.41 2.92-.25.46-.5.13A18.52 18.52.0 0029 52.54a.92.92.0 00-.45.21 13.48 13.48.0 011 2.21c-.17.0-.42.16-.67-.05a17.35 17.35.0 01-1.25-2 9.52 9.52.0 01-2 0c-.43-.12-.26-.62-.01-.75z" fill="#1d1d1b"/><path d="m30.33 51.79.45-.63s1.59 2.25 1.46 2.55-.08.37-.25.37a20.6 20.6.0 01-1.66-2.29z" fill="#1d1d1b"/><path d="m31 50.29.34-.63s1.5 1.92 1.45 2.3-.12.66-.29.54-1.5-2.21-1.5-2.21z" fill="#1d1d1b"/><path d="m31.87 49s.25-.75.41-.75 1.25 1.37 1.17 1.62a2.28 2.28.0 01-.25.5z" fill="#1d1d1b"/><path d="m34.16 41.12a8.91 8.91.0 014-1.66 3.36 3.36.0 013.12 1.33c.21.42.38 1.12.25 1.21s-.79.0-1.16.12a.71.71.0 00-.46.34s-.54-1.71-.79-1.75a.7.7.0 00-.5.16 13.54 13.54.0 01.79 2c-.08.13-.38.92-.46.71s-1.21-2.54-1.5-2.5-.71.21-.62.42a20.56 20.56.0 002.41 3.37c.34.09.5-.5.5-.5A2.18 2.18.0 0141.41 43c1.42-.38 3.21-.05 3.83 1.33s.21 2.58.42 2.75.71.37.79.25a11.75 11.75.0 00.25-1.38s3.88-.45 5.67 1.38a6.24 6.24.0 011.41 5.58 6 6 0 01-.62 1.5A31 31 0 0050 51.21c-.25.0-.62.41-.45.58s3 3 2.75 3-.5.21-.63.17S49 52 48.87 52.12s-.67.34-.46.5 2.37 2.59 2.37 2.59l-1.12-.09a30 30 0 00-2-2.25c-.17.0-.79.17-.63.34s1.84 2 1.46 2.16-1.41-.33-1.71-.29-.54.42-.75.54a1.64 1.64.0 01-1.54.25s2.63-2.37 1.5-4.71a7.41 7.41.0 00-3.16-3.29s-1.17-2-1.5-2.12-.71.0-.59.08a10.84 10.84.0 011.13 1.88 5.83 5.83.0 00-1.13-.38h-.58s-1-2.17-1.83-2.46l-1-.37s-1.33-2.84-1.46-2.88-.63.17-.54.34l1.25 2.45-.58-.08s-1-2-1.21-2-.54.42-.41.54a6 6 0 01.75 1.63c-.13.0-.88.71-.92.42s-.72-2.67-.05-3.8z" fill="#85bfe9"/><path d="m42.49 45.46c.17-.13.42-.5.54-.3s1.25 2.3 1 2.38-.8.25-.88.0-.66-2.08-.66-2.08z" fill="#1d1d1b"/><path d="m44 45.29s.54-.38.63-.08.7 1.75.54 1.87a.57.57.0 01-.71-.17c-.13-.2-.46-1.62-.46-1.62z" fill="#1d1d1b"/><path d="m50.78 50.33c.13-.12.38-.58.5-.54s1.92 1.92 1.88 2.21-.08.46-.21.46-2.17-2.13-2.17-2.13z" fill="#1d1d1b"/><path d="m29.24 41.16a7.44 7.44.0 00-4.08-1.95c-2.13-.09-4 .33-4.71 1.25a10.29 10.29.0 00-1.33 2.66s.66.0 1.71 1.46 1.62 2.17 1.62 2.17l.46-.46s-1.29-2.29-1.13-2.54a.46.46.0 01.5-.29c.21.0 1.09 2.41 1.21 2.33s.34-.17.38-.29-1-2.38-.88-2.54.42-.42.63-.25a18.36 18.36.0 011.08 2.41s.71-.21.63-.33a12.8 12.8.0 01-.88-2.71A.49.49.0 0125 42a28.74 28.74.0 011 2.71s1 .12 1-.05a21.94 21.94.0 01-1.08-3.2c.12-.09.87-.25 1-.09s.91 3.25 1.08 3.34.83.79.83.37-1.16-3.83-1.16-3.83a.33.33.0 01.5.0c.2.29.91 2.33 1 2.12s.07-2.21.07-2.21z" fill="#85bfe9"/><path d="m22 47.33s-1.66-2.67-3.33-3a6.65 6.65.0 00-4.58 1.21 3 3 0 00-1 1.79 5.1 5.1.0 013.12.17c1.79.62 2.09 1.62 2.09 1.62l-.88.34a4 4 0 00-2.67-1.09 4.93 4.93.0 00-4.54 3.13 3.49 3.49.0 002.38 4.25 14.34 14.34.0 004.58.12S15.41 53 17.7 51a5.79 5.79.0 014.3-1.63s-.67-1.46.0-2.04z" fill="#85bfe9"/><path d="m31.49 8.16c1.07-.25 3.38.8 3.92 4.88s.21 8-.5 9.92-1.63 3.29-1.91 3.29a17.73 17.73.0 01-3-.13 19.6 19.6.0 01-1.91-9c.15-4.66 1.99-8.62 3.4-8.96z" fill="#e7413e"/><path d="m31.16 9.66a.34.34.0 01.58.34c-.08.5-.58 2.37-.79 2.33s-.46-.08-.5-.21a15.79 15.79.0 01.71-2.46z" fill="#1d1d1b"/><path d="m24.78 22.87c.06-.26 1.55-1.25 1.63-1a21.38 21.38.0 01.67 3C27 25 25.91 26.25 25.74 26a19.14 19.14.0 01-.96-3.13z" fill="#fab900"/><path d="m37.33 21.37a24.47 24.47.0 01-.8 2.75c-.41 1.09-.45 1.21-.45 1.21s.75 1.29.87 1.17 1-2.21 1.25-3a5.58 5.58.0 00.33-1z" fill="#fab900"/><path d="m30.41 27.87a16.81 16.81.0 012.46.0c0 .17.0 1.13-.17 1.09s-2.29-.17-2.29-.17z" fill="#fab900"/><path d="m30.66 29.5c.48-.45 2.42-.38 2.08 1a4.72 4.72.0 01-1.33 2.29 5.45 5.45.0 00-.67-1.46 1.44 1.44.0 01-.08-1.83z" fill="#f2910d"/><path d="m31 13.54a2.29 2.29.0 013 2c.17 1.75-1.7 4.25-3.54 2.75s-1.76-3.79.54-4.75z" fill="#1d1d1b"/><path d="m31.27 14.69A1.27 1.27.0 0133 15.81c.09 1-.94 2.34-2 1.51a1.45 1.45.0 01.27-2.63z" fill="#fab900"/><g fill="#1d1d1b"><path d="m29.64 19.16c.27-.23.71-.14.83.44s-.66.63-.87.42a.59.59.0 01.04-.86z"/><path d="m31.66 19.48c.27-.23.71-.15.83.43s-.66.63-.87.42a.58.58.0 01.04-.85z"/><path d="m33.24 18.75c.27-.23.71-.15.84.44s-.67.62-.88.41a.58.58.0 01.04-.85z"/><path d="m34.45 17.12c.27-.23.71-.14.83.44s-.66.63-.87.42a.59.59.0 01.04-.86z"/><path d="m32.49 21.12a3.59 3.59.0 011.4.88c0 .14.0.54-.15.52a9.93 9.93.0 01-1.58-.83c-.06-.13.25-.53.33-.57z"/><path d="m31.58 22.33c.1.0 1.83 1.19 1.81 1.46s-.08.46-.29.44A10.08 10.08.0 0131 22.81c0-.15.58-.48.58-.48z"/><path d="m30.49 23.44c.08-.05 2.21 1.45 2.11 1.62s-.27.4-.48.42a7.9 7.9.0 01-2-1.65c-.02-.17.23-.31.37-.39z"/></g></svg>